HIERARCHY
ROOT root
{
	OFFSET 0.000000 0.000000 0.000000
	CHANNELS 6 Xposition Yposition Zposition Zrotation Yrotation Xrotation
	JOINT lhip
	{
		OFFSET 0.058581 -0.082280 -0.017664
		CHANNELS 3 Zrotation Yrotation Xrotation
		JOINT lknee
		{
			OFFSET 0.043451 -0.386469 0.008037
			CHANNELS 3 Zrotation Yrotation Xrotation
			JOINT lankle
			{
				OFFSET -0.014790 -0.426874 -0.037428
				CHANNELS 3 Zrotation Yrotation Xrotation
				JOINT ltoe
				{
					OFFSET 0.041054 -0.060286 0.122042
					CHANNELS 3 Zrotation Yrotation Xrotation
					End Site
					{
						OFFSET 0.000000 0.000000 0.000000
					}
				}
			}
		}
	}
	JOINT rhip
	{
		OFFSET -0.060310 -0.090513 -0.013543
		CHANNELS 3 Zrotation Yrotation Xrotation
		JOINT rknee
		{
			OFFSET -0.043257 -0.383688 -0.004843
			CHANNELS 3 Zrotation Yrotation Xrotation
			JOINT rankle
			{
				OFFSET 0.019056 -0.420046 -0.034562
				CHANNELS 3 Zrotation Yrotation Xrotation
				JOINT rtoe
				{
					OFFSET -0.034840 -0.062106 0.130323
					CHANNELS 3 Zrotation Yrotation Xrotation
					End Site
					{
						OFFSET 0.000000 0.000000 0.000000
					}
				}
			}
		}
	}
	JOINT lowerback
	{
		OFFSET 0.004439 0.124404 -0.038385
		CHANNELS 3 Zrotation Yrotation Xrotation
		JOINT upperback
		{
			OFFSET 0.004488 0.137956 0.026820
			CHANNELS 3 Zrotation Yrotation Xrotation
			JOINT chest
			{
				OFFSET -0.002265 0.056032 0.002855
				CHANNELS 3 Zrotation Yrotation Xrotation
				JOINT lowerneck
				{
					OFFSET -0.013390 0.211636 -0.033468
					CHANNELS 3 Zrotation Yrotation Xrotation
					JOINT upperneck
					{
						OFFSET 0.010113 0.088937 0.050410
						CHANNELS 3 Zrotation Yrotation Xrotation
						End Site
						{
							OFFSET 0.000000 0.000000 0.000000
						}
					}
				}
				JOINT lclavicle
				{
					OFFSET 0.071702 0.114000 -0.018898
					CHANNELS 3 Zrotation Yrotation Xrotation
					JOINT lshoulder
					{
						OFFSET 0.122921 0.045205 -0.019046
						CHANNELS 3 Zrotation Yrotation Xrotation
						JOINT lelbow
						{
							OFFSET 0.255332 -0.015649 -0.022946
							CHANNELS 3 Zrotation Yrotation Xrotation
							JOINT lwrist
							{
								OFFSET 0.265709 0.012698 -0.007375
								CHANNELS 3 Zrotation Yrotation Xrotation
								End Site
								{
									OFFSET 0.000000 0.000000 0.000000
								}
							}
						}
					}
				}
				JOINT rclavicle
				{
					OFFSET -0.082954 0.112472 -0.023707
					CHANNELS 3 Zrotation Yrotation Xrotation
					JOINT rshoulder
					{
						OFFSET -0.113228 0.046853 -0.008472
						CHANNELS 3 Zrotation Yrotation Xrotation
						JOINT relbow
						{
							OFFSET -0.260127 -0.014369 -0.031269
							CHANNELS 3 Zrotation Yrotation Xrotation
							JOINT rwrist
							{
								OFFSET -0.269108 0.006794 -0.006027
								CHANNELS 3 Zrotation Yrotation Xrotation
								End Site
								{
									OFFSET 0.000000 0.000000 0.000000
								}
							}
						}
					}
				}
			}
		}
	}
}
MOTION
Frames: 10
Frame Time: 0.033333
0.348917 0.395973 1.011135 101.462653 6.633860 89.300555 8.710423 -0.780578 0.424009 -1.437423 -10.997175 2.622965 0.569744 7.406431 -10.832451 0.000000 -0.000000 0.000000 -7.715100 -7.058765 -7.038449 -3.678737 2.993450 8.305742 8.151757 -13.788543 17.827178 0.000000 -0.000000 0.000000 0.587138 3.184806 7.232224 -12.407235 4.674275 0.383413 -4.473656 3.116703 -0.164888 -0.211945 -19.545769 -10.292976 6.912435 -2.169804 1.811360 -22.485943 -4.264478 -0.975912 -45.391720 -2.107346 0.565398 12.438988 -26.469895 -7.170500 23.289895 -6.327580 3.675271 -5.836669 21.992017 -8.846704 8.455588 36.188806 1.915084 76.964142 75.461705 108.947054 -24.334806 30.823413 28.997961 
0.350996 0.399767 1.011357 101.174800 7.086275 89.077903 8.972093 -0.714483 1.040387 -1.282410 -11.182280 2.406842 0.715514 7.590272 -11.124895 0.000000 -0.000000 0.000000 -7.364543 -7.004641 -6.978253 -3.770309 3.507967 8.571553 8.347537 -14.115006 18.479083 0.000000 -0.000000 0.000000 0.424924 3.013161 6.344911 -12.584009 4.502930 0.397644 -4.696614 2.931434 -0.018746 -0.877180 -19.338948 -9.211088 6.615992 -1.224745 1.943901 -22.333496 -4.012588 -1.265606 -44.992987 -1.724469 0.261637 11.903110 -24.602633 -7.305789 23.047974 -6.518268 3.841746 -6.517421 20.676290 -9.234357 6.370864 34.390804 -0.045491 71.098526 78.530233 100.943718 -26.079083 30.500903 26.059655 
0.352538 0.404252 1.012064 100.956188 7.369021 88.786973 8.961839 -0.439094 1.414708 -1.302682 -11.338757 2.641293 0.867227 8.040699 -11.221780 0.000000 -0.000000 0.000000 -7.185071 -7.200395 -6.758909 -3.758026 3.721823 8.547900 8.535224 -14.845012 19.019439 0.000000 -0.000000 0.000000 0.382442 2.791707 6.052323 -12.938268 4.399656 -0.245478 -4.950398 2.482166 -0.022268 -1.609589 -19.141648 -7.693947 6.099709 0.392648 2.953007 -22.441869 -3.762877 -1.197093 -44.265437 -1.358682 -0.096604 11.212971 -22.945041 -7.123501 23.226881 -6.448118 4.292276 -7.403784 19.910473 -9.535124 3.324909 32.499826 -2.465007 50.135816 80.269930 78.280380 -27.104879 31.222859 25.885590 
0.354649 0.409200 1.011715 100.816751 7.577599 88.346834 8.931918 -0.333457 1.944896 -1.409083 -11.372510 2.985754 1.067882 8.393399 -11.420739 0.000000 -0.000000 0.000000 -7.005304 -7.681169 -6.234144 -3.791241 3.438716 8.389195 7.982774 -16.019912 19.557987 0.000000 -0.000000 0.000000 0.587632 2.706955 5.306402 -13.473501 4.456655 -0.328459 -5.337574 2.278973 0.196660 -2.132678 -19.362297 -5.747780 5.780786 1.917496 3.958219 -22.459316 -3.714572 -1.205740 -43.451980 -1.615530 -0.116610 10.415922 -21.110212 -6.923202 22.272228 -6.797931 4.325775 -8.302920 18.788076 -10.121433 -0.068066 30.799618 -5.337478 22.914123 78.195905 49.727163 -24.926706 31.432254 28.410327 
0.356390 0.414078 1.011225 100.506419 7.709689 87.910816 8.883222 -0.332721 2.549824 -1.575144 -11.617802 3.175881 1.327331 8.789086 -11.595972 0.000000 -0.000000 0.000000 -6.793827 -8.263224 -5.908697 -3.846729 3.536767 8.481487 7.575607 -17.176229 19.978919 0.000000 -0.000000 0.000000 0.792571 2.754143 4.858411 -14.053699 4.755933 -0.609456 -5.741271 2.046074 0.473030 -2.465850 -19.604607 -4.567018 5.559309 3.039011 5.273029 -22.545572 -3.521071 -1.375640 -42.617562 -2.075794 -0.047219 10.063644 -19.581055 -5.775234 21.898962 -6.735010 5.687703 -9.128791 17.877734 -10.706127 -3.314550 29.096987 -8.237892 5.781413 73.029125 30.971827 -24.011579 31.467011 29.858650 
0.357667 0.418807 1.010763 100.363579 7.774903 87.502189 8.825967 -0.668467 3.003496 -1.927061 -11.599221 3.557133 1.638407 9.056595 -11.853471 0.000000 -0.000000 0.000000 -6.707748 -8.329697 -5.634129 -3.983401 3.295285 8.748841 7.263016 -18.183932 20.069276 0.000000 -0.000000 0.000000 0.847847 2.714021 4.466645 -14.520186 4.986602 -0.750229 -6.248970 2.007612 0.395895 -2.696898 -20.051001 -2.881472 5.384555 3.324468 5.955490 -22.779885 -3.591800 -1.119112 -41.508780 -2.483155 0.408434 9.809885 -18.904100 -5.222818 18.633267 -6.949835 5.104323 -9.328064 17.677780 -10.587270 -6.131379 27.227207 -10.835089 -4.814202 65.812959 18.086717 -21.758257 29.812988 31.083772 
0.358679 0.422603 1.010118 100.263950 7.858875 87.071023 8.768838 -1.014808 3.462518 -2.195044 -11.676175 3.904550 1.997767 9.420819 -12.151311 0.000000 -0.000000 0.000000 -6.591332 -8.155984 -5.566921 -4.033233 3.730100 9.484185 6.778844 -19.199141 20.005204 0.000000 -0.000000 0.000000 0.659042 2.670967 4.095493 -14.780500 5.215276 -0.613570 -6.656903 1.894395 0.314538 -2.774033 -20.548251 -1.909481 5.051037 3.412808 6.768507 -22.967832 -3.460830 -1.031272 -40.502173 -3.090696 0.702520 9.734693 -18.294253 -4.412288 18.237835 -7.447830 5.307935 -9.169694 17.630330 -10.532285 -7.772311 26.421533 -13.403554 -11.894604 57.217075 8.227333 -21.101029 28.543632 31.201722 
0.359643 0.425521 1.009496 100.452379 7.925744 86.848567 8.727928 -1.271840 3.843067 -2.383934 -11.945923 3.873052 2.401759 9.643021 -12.240779 0.000000 -0.000000 0.000000 -6.509989 -7.780787 -5.904480 -3.966734 4.091245 11.073929 6.831052 -19.415482 19.157327 0.000000 -0.000000 0.000000 0.097717 2.686065 3.803989 -14.852419 5.260285 -0.632749 -6.988756 1.786090 0.188134 -2.781920 -20.398778 -0.889211 5.032383 2.875283 7.135054 -22.803872 -3.488509 -0.902952 -39.897570 -3.413794 1.242442 9.889754 -18.245078 -4.065221 18.445533 -7.242785 5.172063 -8.780299 17.608514 -10.730631 -7.412823 26.282692 -15.651774 -18.337064 49.251405 -1.944052 -20.835758 25.226086 29.602277 
0.360304 0.427650 1.009131 100.982977 8.070105 86.402321 8.683063 -1.217382 4.470912 -2.268959 -12.327420 3.670901 2.323868 9.459130 -12.394692 0.000000 -0.000000 0.000000 -6.498274 -7.309198 -6.035190 -3.752324 3.646572 13.550546 8.226052 -18.879113 16.588688 0.000000 -0.000000 0.000000 -0.573025 2.497294 4.141428 -14.804344 5.193648 -0.647500 -7.287944 1.671793 -0.165468 -2.514013 -19.627064 -0.091798 4.673863 1.819173 7.045009 -22.549386 -3.521453 -0.924608 -39.458568 -3.879518 1.639446 9.992766 -18.338259 -3.669841 18.038993 -6.863698 4.152541 -7.806271 17.378822 -10.753862 -6.593101 27.120430 -18.446020 -23.671496 42.583291 -12.352804 -23.088945 21.820859 24.814550 
0.360633 0.428948 1.008603 101.757938 8.199426 86.092392 8.746879 -0.927354 4.949846 -2.139271 -12.678353 3.296930 2.104636 8.757768 -12.460866 0.000000 -0.000000 0.000000 -6.404391 -6.739554 -6.290327 -3.218772 3.445821 16.759795 10.257755 -17.167524 12.269139 0.000000 -0.000000 0.000000 -1.447350 2.325379 4.144478 -14.478471 4.865051 -0.079978 -7.584659 1.665676 -0.695490 -2.227540 -18.070083 0.690200 4.211493 0.465254 6.592760 -22.592980 -4.075007 -0.759622 -38.751042 -4.042421 1.906210 10.318360 -18.504349 -4.008606 17.966274 -6.575059 4.025901 -6.115081 17.613482 -10.647114 -5.568098 28.147752 -21.059110 -29.869389 37.870427 -22.461569 -24.377264 19.429334 21.169046 
